<mxfile host="Electron" agent="Mozilla/5.0 (X11; Linux x86_64) AppleWebKit/537.36 (KHTML, like Gecko) draw.io/26.0.16 Chrome/132.0.6834.196 Electron/34.2.0 Safari/537.36" version="26.0.16">
  <diagram name="Page-1" id="PJgCdanIaGpkUApIPNjL">
    <mxGraphModel dx="5603" dy="2531" grid="1" gridSize="10" guides="1" tooltips="1" connect="1" arrows="1" fold="1" page="1" pageScale="1" pageWidth="827" pageHeight="1169" math="0" shadow="0">
      <root>
        <mxCell id="0" />
        <mxCell id="1" parent="0" />
        <mxCell id="Eg_9pR13XYyEN4W18mx6-2" value="" style="rounded=0;whiteSpace=wrap;html=1;fillColor=none;strokeWidth=6;" parent="1" vertex="1">
          <mxGeometry x="860" y="2050" width="3390" height="2900" as="geometry" />
        </mxCell>
        <mxCell id="Eg_9pR13XYyEN4W18mx6-3" value="&lt;span style=&quot;font-family: &amp;quot;MS Mincho&amp;quot;, &amp;quot;ＭＳ 明朝&amp;quot;; font-size: 93px;&quot;&gt;IPrefetchPipe&lt;/span&gt;" style="rounded=1;whiteSpace=wrap;html=1;fillColor=none;strokeWidth=6;shadow=0;glass=0;autosize=0;resizeWidth=0;imageHeight=24;imageAspect=1;perimeter=rectanglePerimeter;arcSize=21;" parent="1" vertex="1">
          <mxGeometry x="918" y="2390" width="844" height="446" as="geometry" />
        </mxCell>
        <mxCell id="Eg_9pR13XYyEN4W18mx6-4" value="&lt;span style=&quot;font-family: &amp;quot;MS Mincho&amp;quot;, &amp;quot;ＭＳ 明朝&amp;quot;; font-size: 93px;&quot;&gt;MainPipe&lt;/span&gt;" style="rounded=1;whiteSpace=wrap;html=1;fillColor=none;strokeWidth=6;shadow=0;glass=0;autosize=0;resizeWidth=0;imageHeight=24;imageAspect=1;perimeter=rectanglePerimeter;arcSize=21;" parent="1" vertex="1">
          <mxGeometry x="3319" y="2390" width="844" height="446" as="geometry" />
        </mxCell>
        <mxCell id="Eg_9pR13XYyEN4W18mx6-5" value="&lt;span style=&quot;font-family: &amp;quot;MS Mincho&amp;quot;, &amp;quot;ＭＳ 明朝&amp;quot;; font-size: 93px;&quot;&gt;MetaArray&lt;/span&gt;" style="rounded=1;whiteSpace=wrap;html=1;fillColor=none;strokeWidth=6;shadow=0;glass=0;autosize=0;resizeWidth=0;imageHeight=24;imageAspect=1;perimeter=rectanglePerimeter;arcSize=21;" parent="1" vertex="1">
          <mxGeometry x="917" y="3683" width="844" height="446" as="geometry" />
        </mxCell>
        <mxCell id="Eg_9pR13XYyEN4W18mx6-6" value="&lt;span style=&quot;font-family: &amp;quot;MS Mincho&amp;quot;, &amp;quot;ＭＳ 明朝&amp;quot;; font-size: 93px;&quot;&gt;DataArray&lt;/span&gt;" style="rounded=1;whiteSpace=wrap;html=1;fillColor=none;strokeWidth=6;shadow=0;glass=0;autosize=0;resizeWidth=0;imageHeight=24;imageAspect=1;perimeter=rectanglePerimeter;arcSize=21;" parent="1" vertex="1">
          <mxGeometry x="3310" y="3683" width="844" height="446" as="geometry" />
        </mxCell>
        <mxCell id="Eg_9pR13XYyEN4W18mx6-7" value="&lt;font face=&quot;MS Mincho, ＭＳ 明朝&quot;&gt;&lt;span style=&quot;font-size: 93px;&quot;&gt;WayLookup&lt;/span&gt;&lt;/font&gt;" style="rounded=1;whiteSpace=wrap;html=1;fillColor=none;strokeWidth=6;shadow=0;glass=0;autosize=0;resizeWidth=0;imageHeight=24;imageAspect=1;perimeter=rectanglePerimeter;arcSize=21;" parent="1" vertex="1">
          <mxGeometry x="2174" y="2390" width="720" height="446" as="geometry" />
        </mxCell>
        <mxCell id="Eg_9pR13XYyEN4W18mx6-8" value="&lt;font face=&quot;MS Mincho, ＭＳ 明朝&quot;&gt;&lt;span style=&quot;font-size: 93px;&quot;&gt;MissUnit&lt;/span&gt;&lt;/font&gt;" style="rounded=1;whiteSpace=wrap;html=1;fillColor=none;strokeWidth=6;shadow=0;glass=0;autosize=0;resizeWidth=0;imageHeight=24;imageAspect=1;perimeter=rectanglePerimeter;arcSize=21;" parent="1" vertex="1">
          <mxGeometry x="2174" y="3683" width="720" height="446" as="geometry" />
        </mxCell>
        <mxCell id="Eg_9pR13XYyEN4W18mx6-9" value="" style="endArrow=classic;html=1;rounded=0;strokeWidth=6;endFill=1;startArrow=classic;startFill=1;endSize=40;targetPerimeterSpacing=0;entryX=0.284;entryY=1.002;entryDx=0;entryDy=0;entryPerimeter=0;startSize=40;exitX=0.234;exitY=0;exitDx=0;exitDy=0;exitPerimeter=0;" parent="1" edge="1">
          <mxGeometry width="50" height="50" relative="1" as="geometry">
            <mxPoint x="1117.496" y="2390" as="sourcePoint" />
            <mxPoint x="1121.9995600000002" y="2059.9999999999995" as="targetPoint" />
          </mxGeometry>
        </mxCell>
        <mxCell id="Eg_9pR13XYyEN4W18mx6-15" value="&lt;font face=&quot;MS Mincho,ＭＳ 明朝&quot; style=&quot;font-size: 80px;&quot;&gt;itlb req/resp&lt;/font&gt;" style="edgeLabel;html=1;align=center;verticalAlign=middle;resizable=0;points=[];labelBackgroundColor=default;" parent="1" vertex="1" connectable="0">
          <mxGeometry x="1187" y="2283" as="geometry">
            <mxPoint x="-5" y="-7" as="offset" />
          </mxGeometry>
        </mxCell>
        <mxCell id="Eg_9pR13XYyEN4W18mx6-16" value="" style="endArrow=none;html=1;rounded=0;strokeWidth=6;endFill=1;startArrow=classic;startFill=1;endSize=40;targetPerimeterSpacing=0;entryX=0.284;entryY=1.002;entryDx=0;entryDy=0;entryPerimeter=0;startSize=40;exitX=0.728;exitY=-0.002;exitDx=0;exitDy=0;exitPerimeter=0;" parent="1" source="Eg_9pR13XYyEN4W18mx6-3" edge="1">
          <mxGeometry width="50" height="50" relative="1" as="geometry">
            <mxPoint x="1526.996" y="2400" as="sourcePoint" />
            <mxPoint x="1531.4995600000002" y="2069.9999999999995" as="targetPoint" />
          </mxGeometry>
        </mxCell>
        <mxCell id="Eg_9pR13XYyEN4W18mx6-17" value="&lt;font face=&quot;MS Mincho,ＭＳ 明朝&quot; style=&quot;font-size: 80px;&quot;&gt;FTQ prefetch req&lt;/font&gt;" style="edgeLabel;html=1;align=center;verticalAlign=middle;resizable=0;points=[];labelBackgroundColor=default;" parent="1" vertex="1" connectable="0">
          <mxGeometry x="1576" y="2189" as="geometry">
            <mxPoint x="-5" y="-7" as="offset" />
          </mxGeometry>
        </mxCell>
        <mxCell id="Eg_9pR13XYyEN4W18mx6-18" value="&lt;span style=&quot;font-family: &amp;quot;MS Mincho&amp;quot;, &amp;quot;ＭＳ 明朝&amp;quot;; font-size: 93px;&quot;&gt;Replacer&lt;/span&gt;" style="rounded=1;whiteSpace=wrap;html=1;fillColor=none;strokeWidth=6;shadow=0;glass=0;autosize=0;resizeWidth=0;imageHeight=24;imageAspect=1;perimeter=rectanglePerimeter;arcSize=21;" parent="1" vertex="1">
          <mxGeometry x="2810" y="3130" width="590" height="350" as="geometry" />
        </mxCell>
        <mxCell id="Eg_9pR13XYyEN4W18mx6-19" value="" style="endArrow=none;html=1;rounded=0;strokeWidth=6;endFill=1;startArrow=classic;startFill=1;endSize=40;targetPerimeterSpacing=0;entryX=0.177;entryY=1.004;entryDx=0;entryDy=0;entryPerimeter=0;startSize=40;exitX=0.178;exitY=-0.004;exitDx=0;exitDy=0;exitPerimeter=0;" parent="1" source="Eg_9pR13XYyEN4W18mx6-5" target="Eg_9pR13XYyEN4W18mx6-3" edge="1">
          <mxGeometry width="50" height="50" relative="1" as="geometry">
            <mxPoint x="1070.5" y="3349" as="sourcePoint" />
            <mxPoint x="1069.9995600000002" y="3029.9999999999995" as="targetPoint" />
          </mxGeometry>
        </mxCell>
        <mxCell id="Eg_9pR13XYyEN4W18mx6-20" value="" style="endArrow=none;html=1;rounded=0;strokeWidth=6;endFill=1;startArrow=classic;startFill=1;endSize=40;entryX=0.5;entryY=0;entryDx=0;entryDy=0;startSize=40;exitX=0.5;exitY=1;exitDx=0;exitDy=0;sourcePerimeterSpacing=0;" parent="1" source="Eg_9pR13XYyEN4W18mx6-3" target="Eg_9pR13XYyEN4W18mx6-5" edge="1">
          <mxGeometry width="50" height="50" relative="1" as="geometry">
            <mxPoint x="1338" y="2848" as="sourcePoint" />
            <mxPoint x="1338" y="3691" as="targetPoint" />
          </mxGeometry>
        </mxCell>
        <mxCell id="Eg_9pR13XYyEN4W18mx6-21" value="" style="endArrow=none;html=1;rounded=0;strokeWidth=6;endFill=1;startArrow=classic;startFill=1;endSize=40;entryX=0.5;entryY=0;entryDx=0;entryDy=0;startSize=40;exitX=0.5;exitY=1;exitDx=0;exitDy=0;sourcePerimeterSpacing=0;" parent="1" source="Eg_9pR13XYyEN4W18mx6-7" target="Eg_9pR13XYyEN4W18mx6-8" edge="1">
          <mxGeometry width="50" height="50" relative="1" as="geometry">
            <mxPoint x="2534" y="2860" as="sourcePoint" />
            <mxPoint x="2533" y="3707" as="targetPoint" />
          </mxGeometry>
        </mxCell>
        <mxCell id="Eg_9pR13XYyEN4W18mx6-22" value="" style="endArrow=classic;html=1;rounded=0;strokeWidth=6;endFill=1;startArrow=classic;startFill=1;endSize=40;targetPerimeterSpacing=0;entryX=0.82;entryY=0.999;entryDx=0;entryDy=0;entryPerimeter=0;startSize=40;exitX=0.216;exitY=0.001;exitDx=0;exitDy=0;exitPerimeter=0;" parent="1" source="Eg_9pR13XYyEN4W18mx6-8" target="Eg_9pR13XYyEN4W18mx6-3" edge="1">
          <mxGeometry width="50" height="50" relative="1" as="geometry">
            <mxPoint x="2330" y="3533" as="sourcePoint" />
            <mxPoint x="2330" y="2690" as="targetPoint" />
            <Array as="points">
              <mxPoint x="2330" y="2940" />
              <mxPoint x="1610" y="2940" />
            </Array>
          </mxGeometry>
        </mxCell>
        <mxCell id="Eg_9pR13XYyEN4W18mx6-23" value="" style="endArrow=classic;html=1;rounded=0;strokeWidth=6;endFill=1;startArrow=classic;startFill=1;endSize=40;targetPerimeterSpacing=0;entryX=0.82;entryY=0.999;entryDx=0;entryDy=0;entryPerimeter=0;startSize=40;exitX=0.761;exitY=-0.002;exitDx=0;exitDy=0;exitPerimeter=0;" parent="1" source="Eg_9pR13XYyEN4W18mx6-8" edge="1">
          <mxGeometry width="50" height="50" relative="1" as="geometry">
            <mxPoint x="2721" y="3683" as="sourcePoint" />
            <mxPoint x="3441" y="2836" as="targetPoint" />
            <Array as="points">
              <mxPoint x="2721" y="2940" />
              <mxPoint x="3441" y="2940" />
            </Array>
          </mxGeometry>
        </mxCell>
        <mxCell id="Eg_9pR13XYyEN4W18mx6-27" value="" style="endArrow=none;html=1;rounded=0;strokeWidth=6;endFill=1;startArrow=classic;startFill=1;endSize=40;targetPerimeterSpacing=0;entryX=0.59;entryY=0.002;entryDx=0;entryDy=0;entryPerimeter=0;startSize=40;exitX=0.583;exitY=1.003;exitDx=0;exitDy=0;exitPerimeter=0;" parent="1" source="Eg_9pR13XYyEN4W18mx6-4" target="Eg_9pR13XYyEN4W18mx6-6" edge="1">
          <mxGeometry width="50" height="50" relative="1" as="geometry">
            <mxPoint x="3809.998461538461" y="2838" as="sourcePoint" />
            <mxPoint x="3809.998461538461" y="3681" as="targetPoint" />
          </mxGeometry>
        </mxCell>
        <mxCell id="Eg_9pR13XYyEN4W18mx6-28" value="" style="endArrow=none;html=1;rounded=0;strokeWidth=6;endFill=1;startArrow=classic;startFill=1;endSize=40;entryX=0.819;entryY=1;entryDx=0;entryDy=0;startSize=40;exitX=0.828;exitY=-0.003;exitDx=0;exitDy=0;sourcePerimeterSpacing=0;exitPerimeter=0;entryPerimeter=0;" parent="1" source="Eg_9pR13XYyEN4W18mx6-6" target="Eg_9pR13XYyEN4W18mx6-4" edge="1">
          <mxGeometry width="50" height="50" relative="1" as="geometry">
            <mxPoint x="4009.998461538463" y="3683" as="sourcePoint" />
            <mxPoint x="4010.998461538463" y="2836" as="targetPoint" />
          </mxGeometry>
        </mxCell>
        <mxCell id="Eg_9pR13XYyEN4W18mx6-29" value="" style="endArrow=classic;html=1;rounded=0;strokeWidth=6;endFill=1;startArrow=none;startFill=0;endSize=40;targetPerimeterSpacing=0;entryX=0;entryY=0.5;entryDx=0;entryDy=0;startSize=40;exitX=1;exitY=0.5;exitDx=0;exitDy=0;" parent="1" source="Eg_9pR13XYyEN4W18mx6-3" target="Eg_9pR13XYyEN4W18mx6-7" edge="1">
          <mxGeometry width="50" height="50" relative="1" as="geometry">
            <mxPoint x="1959.996" y="3010" as="sourcePoint" />
            <mxPoint x="1964.4995600000002" y="2679.9999999999995" as="targetPoint" />
          </mxGeometry>
        </mxCell>
        <mxCell id="Eg_9pR13XYyEN4W18mx6-30" value="" style="endArrow=classic;html=1;rounded=0;strokeWidth=6;endFill=1;startArrow=none;startFill=0;endSize=40;targetPerimeterSpacing=0;entryX=0;entryY=0.5;entryDx=0;entryDy=0;startSize=40;exitX=1;exitY=0.5;exitDx=0;exitDy=0;" parent="1" source="Eg_9pR13XYyEN4W18mx6-7" target="Eg_9pR13XYyEN4W18mx6-4" edge="1">
          <mxGeometry width="50" height="50" relative="1" as="geometry">
            <mxPoint x="2840" y="2620" as="sourcePoint" />
            <mxPoint x="3252" y="2620" as="targetPoint" />
          </mxGeometry>
        </mxCell>
        <mxCell id="Eg_9pR13XYyEN4W18mx6-31" value="" style="endArrow=none;html=1;rounded=0;strokeWidth=6;endFill=1;startArrow=classic;startFill=1;endSize=40;targetPerimeterSpacing=0;entryX=0.284;entryY=1.002;entryDx=0;entryDy=0;entryPerimeter=0;startSize=40;exitX=0.491;exitY=0.001;exitDx=0;exitDy=0;exitPerimeter=0;" parent="1" edge="1">
          <mxGeometry width="50" height="50" relative="1" as="geometry">
            <mxPoint x="3589.0039999999985" y="2389.996" as="sourcePoint" />
            <mxPoint x="3589.29956" y="2070.9999999999995" as="targetPoint" />
          </mxGeometry>
        </mxCell>
        <mxCell id="Eg_9pR13XYyEN4W18mx6-34" value="" style="endArrow=none;html=1;rounded=0;strokeWidth=6;endFill=1;startArrow=classic;startFill=1;endSize=40;entryX=0.819;entryY=0.001;entryDx=0;entryDy=0;entryPerimeter=0;startSize=40;exitX=0.491;exitY=0.001;exitDx=0;exitDy=0;exitPerimeter=0;sourcePerimeterSpacing=0;" parent="1" edge="1">
          <mxGeometry width="50" height="50" relative="1" as="geometry">
            <mxPoint x="3870.4595600000002" y="2075.9999999999995" as="sourcePoint" />
            <mxPoint x="3869.996" y="2389.9960000000005" as="targetPoint" />
          </mxGeometry>
        </mxCell>
        <mxCell id="Eg_9pR13XYyEN4W18mx6-35" value="" style="endArrow=classic;html=1;rounded=0;strokeWidth=6;endFill=1;startArrow=none;startFill=0;endSize=40;targetPerimeterSpacing=0;entryX=0;entryY=0.5;entryDx=0;entryDy=0;startSize=40;exitX=1;exitY=0.5;exitDx=0;exitDy=0;" parent="1" source="Eg_9pR13XYyEN4W18mx6-8" target="Eg_9pR13XYyEN4W18mx6-6" edge="1">
          <mxGeometry width="50" height="50" relative="1" as="geometry">
            <mxPoint x="2840" y="3910" as="sourcePoint" />
            <mxPoint x="3265" y="3910" as="targetPoint" />
          </mxGeometry>
        </mxCell>
        <mxCell id="Eg_9pR13XYyEN4W18mx6-36" value="" style="endArrow=classic;html=1;rounded=0;strokeWidth=6;endFill=1;startArrow=none;startFill=0;endSize=40;entryX=1;entryY=0.5;entryDx=0;entryDy=0;startSize=40;exitX=0;exitY=0.5;exitDx=0;exitDy=0;sourcePerimeterSpacing=0;" parent="1" source="Eg_9pR13XYyEN4W18mx6-8" target="Eg_9pR13XYyEN4W18mx6-5" edge="1">
          <mxGeometry width="50" height="50" relative="1" as="geometry">
            <mxPoint x="2216" y="3910" as="sourcePoint" />
            <mxPoint x="1800" y="3910" as="targetPoint" />
          </mxGeometry>
        </mxCell>
        <mxCell id="Eg_9pR13XYyEN4W18mx6-37" value="" style="endArrow=none;html=1;rounded=0;strokeWidth=6;endFill=1;startArrow=classic;startFill=1;endSize=40;targetPerimeterSpacing=0;entryX=0.373;entryY=0.999;entryDx=0;entryDy=0;entryPerimeter=0;startSize=40;exitX=1;exitY=0.5;exitDx=0;exitDy=0;" parent="1" source="Eg_9pR13XYyEN4W18mx6-18" target="Eg_9pR13XYyEN4W18mx6-4" edge="1">
          <mxGeometry width="50" height="50" relative="1" as="geometry">
            <mxPoint x="3630.99" y="3218.55" as="sourcePoint" />
            <mxPoint x="3631.68956" y="2899.999999999999" as="targetPoint" />
            <Array as="points">
              <mxPoint x="3634" y="3305" />
            </Array>
          </mxGeometry>
        </mxCell>
        <mxCell id="Eg_9pR13XYyEN4W18mx6-38" value="" style="endArrow=none;html=1;rounded=0;strokeWidth=6;endFill=1;startArrow=classic;startFill=1;endSize=40;targetPerimeterSpacing=0;entryX=0.497;entryY=0.999;entryDx=0;entryDy=0;startSize=40;exitX=1;exitY=0.215;exitDx=0;exitDy=0;exitPerimeter=0;entryPerimeter=0;" parent="1" source="Eg_9pR13XYyEN4W18mx6-8" target="Eg_9pR13XYyEN4W18mx6-18" edge="1">
          <mxGeometry width="50" height="50" relative="1" as="geometry">
            <mxPoint x="2870" y="3779" as="sourcePoint" />
            <mxPoint x="3104" y="3310" as="targetPoint" />
            <Array as="points">
              <mxPoint x="3104" y="3779" />
            </Array>
          </mxGeometry>
        </mxCell>
        <mxCell id="Eg_9pR13XYyEN4W18mx6-39" value="" style="endArrow=classic;html=1;rounded=0;strokeWidth=6;endFill=1;startArrow=classic;startFill=1;endSize=40;targetPerimeterSpacing=0;startSize=40;exitX=0.849;exitY=-0.002;exitDx=0;exitDy=0;exitPerimeter=0;" parent="1" source="Eg_9pR13XYyEN4W18mx6-3" edge="1">
          <mxGeometry width="50" height="50" relative="1" as="geometry">
            <mxPoint x="1636" y="3019" as="sourcePoint" />
            <mxPoint x="2490" y="2070" as="targetPoint" />
            <Array as="points">
              <mxPoint x="1635" y="2277" />
              <mxPoint x="2490" y="2277" />
            </Array>
          </mxGeometry>
        </mxCell>
        <mxCell id="Eg_9pR13XYyEN4W18mx6-40" value="" style="endArrow=none;html=1;rounded=0;strokeWidth=6;endFill=1;startArrow=classic;startFill=1;endSize=40;targetPerimeterSpacing=0;startSize=40;exitX=0.19;exitY=-0.005;exitDx=0;exitDy=0;exitPerimeter=0;" parent="1" source="Eg_9pR13XYyEN4W18mx6-4" edge="1">
          <mxGeometry width="50" height="50" relative="1" as="geometry">
            <mxPoint x="3544.348" y="2384.7699999999995" as="sourcePoint" />
            <mxPoint x="2490" y="2277" as="targetPoint" />
            <Array as="points">
              <mxPoint x="3480" y="2280" />
            </Array>
          </mxGeometry>
        </mxCell>
        <mxCell id="Eg_9pR13XYyEN4W18mx6-41" value="" style="shape=flexArrow;endArrow=classic;startArrow=classic;html=1;rounded=1;width=89.58333333333334;endSize=9.304166666666667;endWidth=86.14583333333334;startWidth=86.14583333333334;startSize=9.304166666666667;strokeWidth=6;flowAnimation=0;" parent="1" edge="1">
          <mxGeometry width="100" height="100" relative="1" as="geometry">
            <mxPoint x="2532.75" y="4884" as="sourcePoint" />
            <mxPoint x="2532.75" y="4130" as="targetPoint" />
          </mxGeometry>
        </mxCell>
        <mxCell id="Eg_9pR13XYyEN4W18mx6-42" value="&lt;font face=&quot;MS Mincho,ＭＳ 明朝&quot; style=&quot;font-size: 80px;&quot;&gt;Tilelink_master&lt;/font&gt;" style="edgeLabel;html=1;align=center;verticalAlign=middle;resizable=0;points=[];labelBackgroundColor=default;" parent="1" vertex="1" connectable="0">
          <mxGeometry x="2920" y="4290" as="geometry">
            <mxPoint x="-5" y="-7" as="offset" />
          </mxGeometry>
        </mxCell>
        <mxCell id="Eg_9pR13XYyEN4W18mx6-43" value="&lt;font face=&quot;MS Mincho,ＭＳ 明朝&quot; style=&quot;font-size: 80px;&quot;&gt;pmp req/resp&lt;/font&gt;" style="edgeLabel;html=1;align=center;verticalAlign=middle;resizable=0;points=[];labelBackgroundColor=default;" parent="1" vertex="1" connectable="0">
          <mxGeometry x="2493" y="2190" as="geometry">
            <mxPoint x="-5" y="-7" as="offset" />
          </mxGeometry>
        </mxCell>
        <mxCell id="Eg_9pR13XYyEN4W18mx6-44" value="&lt;font face=&quot;MS Mincho,ＭＳ 明朝&quot; style=&quot;font-size: 80px;&quot;&gt;FTQ fetch req&lt;/font&gt;" style="edgeLabel;html=1;align=center;verticalAlign=middle;resizable=0;points=[];labelBackgroundColor=default;" parent="1" vertex="1" connectable="0">
          <mxGeometry x="3570" y="2191" as="geometry">
            <mxPoint x="-5" y="-7" as="offset" />
          </mxGeometry>
        </mxCell>
        <mxCell id="Eg_9pR13XYyEN4W18mx6-45" value="&lt;font face=&quot;MS Mincho,ＭＳ 明朝&quot; style=&quot;font-size: 80px;&quot;&gt;ifu resp&lt;/font&gt;" style="edgeLabel;html=1;align=center;verticalAlign=middle;resizable=0;points=[];labelBackgroundColor=default;" parent="1" vertex="1" connectable="0">
          <mxGeometry x="3850" y="2300" as="geometry">
            <mxPoint x="-5" y="-7" as="offset" />
          </mxGeometry>
        </mxCell>
        <mxCell id="Eg_9pR13XYyEN4W18mx6-46" value="&lt;font face=&quot;MS Mincho,ＭＳ 明朝&quot; style=&quot;font-size: 80px;&quot;&gt;read req&lt;/font&gt;" style="edgeLabel;html=1;align=center;verticalAlign=middle;resizable=0;points=[];labelBackgroundColor=default;" parent="1" vertex="1" connectable="0">
          <mxGeometry x="1070" y="3090" as="geometry">
            <mxPoint x="-5" y="-7" as="offset" />
          </mxGeometry>
        </mxCell>
        <mxCell id="Eg_9pR13XYyEN4W18mx6-47" value="&lt;font face=&quot;MS Mincho,ＭＳ 明朝&quot; style=&quot;font-size: 80px;&quot;&gt;read resp&lt;/font&gt;" style="edgeLabel;html=1;align=center;verticalAlign=middle;resizable=0;points=[];labelBackgroundColor=default;" parent="1" vertex="1" connectable="0">
          <mxGeometry x="1339" y="3390" as="geometry">
            <mxPoint x="-4" y="-21" as="offset" />
          </mxGeometry>
        </mxCell>
        <mxCell id="Eg_9pR13XYyEN4W18mx6-48" value="&lt;font face=&quot;MS Mincho,ＭＳ 明朝&quot; style=&quot;font-size: 80px;&quot;&gt;read req&lt;/font&gt;" style="edgeLabel;html=1;align=center;verticalAlign=middle;resizable=0;points=[];labelBackgroundColor=default;" parent="1" vertex="1" connectable="0">
          <mxGeometry x="4010" y="3090" as="geometry">
            <mxPoint x="-5" y="-7" as="offset" />
          </mxGeometry>
        </mxCell>
        <mxCell id="Eg_9pR13XYyEN4W18mx6-49" value="&lt;font face=&quot;MS Mincho,ＭＳ 明朝&quot; style=&quot;font-size: 80px;&quot;&gt;read resp&lt;/font&gt;" style="edgeLabel;html=1;align=center;verticalAlign=middle;resizable=0;points=[];labelBackgroundColor=default;" parent="1" vertex="1" connectable="0">
          <mxGeometry x="3810" y="3390" as="geometry">
            <mxPoint x="-5" y="-7" as="offset" />
          </mxGeometry>
        </mxCell>
        <mxCell id="Eg_9pR13XYyEN4W18mx6-50" value="&lt;font face=&quot;MS Mincho,ＭＳ 明朝&quot; style=&quot;font-size: 80px;&quot;&gt;enqueue&lt;/font&gt;" style="edgeLabel;html=1;align=center;verticalAlign=middle;resizable=0;points=[];labelBackgroundColor=default;" parent="1" vertex="1" connectable="0">
          <mxGeometry x="1950" y="2613" as="geometry">
            <mxPoint x="-5" y="-7" as="offset" />
          </mxGeometry>
        </mxCell>
        <mxCell id="Eg_9pR13XYyEN4W18mx6-51" value="&lt;font face=&quot;MS Mincho,ＭＳ 明朝&quot; style=&quot;font-size: 80px;&quot;&gt;dequeue&lt;/font&gt;" style="edgeLabel;html=1;align=center;verticalAlign=middle;resizable=0;points=[];labelBackgroundColor=default;" parent="1" vertex="1" connectable="0">
          <mxGeometry x="3090" y="2613" as="geometry">
            <mxPoint x="-5" y="-7" as="offset" />
          </mxGeometry>
        </mxCell>
        <mxCell id="Eg_9pR13XYyEN4W18mx6-52" value="&lt;font face=&quot;MS Mincho,ＭＳ 明朝&quot; style=&quot;font-size: 80px;&quot;&gt;write&lt;/font&gt;&lt;div&gt;&lt;font face=&quot;MS Mincho,ＭＳ 明朝&quot; style=&quot;font-size: 80px;&quot;&gt;req&lt;/font&gt;&lt;/div&gt;" style="edgeLabel;html=1;align=center;verticalAlign=middle;resizable=0;points=[];labelBackgroundColor=default;" parent="1" vertex="1" connectable="0">
          <mxGeometry x="2000" y="3910" as="geometry">
            <mxPoint x="-5" y="-7" as="offset" />
          </mxGeometry>
        </mxCell>
        <mxCell id="Eg_9pR13XYyEN4W18mx6-53" value="&lt;font face=&quot;MS Mincho,ＭＳ 明朝&quot; style=&quot;font-size: 80px;&quot;&gt;write&lt;/font&gt;&lt;div&gt;&lt;font face=&quot;MS Mincho,ＭＳ 明朝&quot; style=&quot;font-size: 80px;&quot;&gt;req&lt;/font&gt;&lt;/div&gt;" style="edgeLabel;html=1;align=center;verticalAlign=middle;resizable=0;points=[];labelBackgroundColor=default;" parent="1" vertex="1" connectable="0">
          <mxGeometry x="3110" y="3910" as="geometry">
            <mxPoint x="-5" y="-7" as="offset" />
          </mxGeometry>
        </mxCell>
        <mxCell id="Eg_9pR13XYyEN4W18mx6-54" value="&lt;font face=&quot;MS Mincho,ＭＳ 明朝&quot; style=&quot;font-size: 80px;&quot;&gt;prefetch&lt;/font&gt;&lt;div&gt;&lt;font face=&quot;MS Mincho,ＭＳ 明朝&quot; style=&quot;font-size: 80px;&quot;&gt;req&lt;/font&gt;&lt;/div&gt;" style="edgeLabel;html=1;align=center;verticalAlign=middle;resizable=0;points=[];labelBackgroundColor=default;" parent="1" vertex="1" connectable="0">
          <mxGeometry x="1990" y="2950" as="geometry">
            <mxPoint x="-5" y="-7" as="offset" />
          </mxGeometry>
        </mxCell>
        <mxCell id="Eg_9pR13XYyEN4W18mx6-55" value="&lt;font face=&quot;MS Mincho,ＭＳ 明朝&quot; style=&quot;font-size: 80px;&quot;&gt;fetch&lt;/font&gt;&lt;div&gt;&lt;font face=&quot;MS Mincho,ＭＳ 明朝&quot; style=&quot;font-size: 80px;&quot;&gt;req/resp&lt;/font&gt;&lt;/div&gt;" style="edgeLabel;html=1;align=center;verticalAlign=middle;resizable=0;points=[];labelBackgroundColor=default;" parent="1" vertex="1" connectable="0">
          <mxGeometry x="3090" y="2950" as="geometry">
            <mxPoint x="-5" y="-7" as="offset" />
          </mxGeometry>
        </mxCell>
        <mxCell id="Eg_9pR13XYyEN4W18mx6-56" value="&lt;font face=&quot;MS Mincho,ＭＳ 明朝&quot; style=&quot;font-size: 80px;&quot;&gt;update&lt;/font&gt;" style="edgeLabel;html=1;align=center;verticalAlign=middle;resizable=0;points=[];labelBackgroundColor=default;" parent="1" vertex="1" connectable="0">
          <mxGeometry x="2534" y="3140" as="geometry">
            <mxPoint x="-5" y="-7" as="offset" />
          </mxGeometry>
        </mxCell>
        <mxCell id="Eg_9pR13XYyEN4W18mx6-57" value="&lt;font face=&quot;MS Mincho,ＭＳ 明朝&quot; style=&quot;font-size: 80px;&quot;&gt;hit&lt;/font&gt;" style="edgeLabel;html=1;align=center;verticalAlign=middle;resizable=0;points=[];labelBackgroundColor=default;" parent="1" vertex="1" connectable="0">
          <mxGeometry x="3630.99" y="3070" as="geometry">
            <mxPoint x="-5" y="-7" as="offset" />
          </mxGeometry>
        </mxCell>
        <mxCell id="Eg_9pR13XYyEN4W18mx6-58" value="&lt;font face=&quot;MS Mincho,ＭＳ 明朝&quot; style=&quot;font-size: 80px;&quot;&gt;victim&lt;/font&gt;" style="edgeLabel;html=1;align=center;verticalAlign=middle;resizable=0;points=[];labelBackgroundColor=default;" parent="1" vertex="1" connectable="0">
          <mxGeometry x="3105" y="3630" as="geometry">
            <mxPoint x="-5" y="-7" as="offset" />
          </mxGeometry>
        </mxCell>
        <mxCell id="99R8zTNlRiclbiTMnsVC-2" value="" style="endArrow=none;html=1;rounded=0;strokeWidth=6;endFill=1;startArrow=classic;startFill=1;endSize=40;entryX=0.819;entryY=0.001;entryDx=0;entryDy=0;entryPerimeter=0;startSize=40;sourcePerimeterSpacing=0;strokeColor=#000000;" edge="1" parent="1">
          <mxGeometry width="50" height="50" relative="1" as="geometry">
            <mxPoint x="4050" y="2080" as="sourcePoint" />
            <mxPoint x="4050" y="2390" as="targetPoint" />
          </mxGeometry>
        </mxCell>
        <mxCell id="99R8zTNlRiclbiTMnsVC-3" value="&lt;font face=&quot;MS Mincho,ＭＳ 明朝&quot; style=&quot;font-size: 80px; color: rgb(0, 0, 0);&quot;&gt;errors&lt;/font&gt;" style="edgeLabel;html=1;align=center;verticalAlign=middle;resizable=0;points=[];labelBackgroundColor=default;" vertex="1" connectable="0" parent="1">
          <mxGeometry x="4060" y="2200" as="geometry">
            <mxPoint x="-5" y="-7" as="offset" />
          </mxGeometry>
        </mxCell>
        <mxCell id="99R8zTNlRiclbiTMnsVC-5" value="&lt;span style=&quot;font-family: &amp;quot;MS Mincho&amp;quot;, &amp;quot;ＭＳ 明朝&amp;quot;; font-size: 93px;&quot;&gt;CtrlUnit&lt;/span&gt;" style="rounded=1;whiteSpace=wrap;html=1;fillColor=none;strokeWidth=6;shadow=0;glass=0;autosize=0;resizeWidth=0;imageHeight=24;imageAspect=1;perimeter=rectanglePerimeter;arcSize=21;" vertex="1" parent="1">
          <mxGeometry x="1590" y="4330" width="844" height="446" as="geometry" />
        </mxCell>
        <mxCell id="99R8zTNlRiclbiTMnsVC-6" value="" style="endArrow=none;html=1;rounded=0;strokeWidth=6;endFill=1;startArrow=classic;startFill=1;endSize=40;entryX=0;entryY=0.25;entryDx=0;entryDy=0;startSize=40;sourcePerimeterSpacing=0;exitX=0.75;exitY=1;exitDx=0;exitDy=0;" edge="1" parent="1" source="Eg_9pR13XYyEN4W18mx6-5" target="99R8zTNlRiclbiTMnsVC-5">
          <mxGeometry width="50" height="50" relative="1" as="geometry">
            <mxPoint x="1361" y="4130" as="sourcePoint" />
            <mxPoint x="1590" y="4432.5" as="targetPoint" />
            <Array as="points">
              <mxPoint x="1550" y="4440" />
            </Array>
          </mxGeometry>
        </mxCell>
        <mxCell id="99R8zTNlRiclbiTMnsVC-8" value="" style="endArrow=none;html=1;rounded=0;strokeWidth=6;endFill=1;startArrow=classic;startFill=1;endSize=40;startSize=40;sourcePerimeterSpacing=0;entryX=0;entryY=0.5;entryDx=0;entryDy=0;exitX=0.5;exitY=1;exitDx=0;exitDy=0;" edge="1" parent="1" source="Eg_9pR13XYyEN4W18mx6-5" target="99R8zTNlRiclbiTMnsVC-5">
          <mxGeometry width="50" height="50" relative="1" as="geometry">
            <mxPoint x="1200" y="4130" as="sourcePoint" />
            <mxPoint x="1590" y="4534" as="targetPoint" />
            <Array as="points">
              <mxPoint x="1339" y="4550" />
            </Array>
          </mxGeometry>
        </mxCell>
        <mxCell id="99R8zTNlRiclbiTMnsVC-9" value="" style="endArrow=none;html=1;rounded=0;strokeWidth=6;endFill=1;startArrow=classic;startFill=1;endSize=40;targetPerimeterSpacing=0;entryX=0.25;entryY=1;entryDx=0;entryDy=0;startSize=40;exitX=0;exitY=0.75;exitDx=0;exitDy=0;" edge="1" parent="1" source="99R8zTNlRiclbiTMnsVC-5" target="Eg_9pR13XYyEN4W18mx6-5">
          <mxGeometry width="50" height="50" relative="1" as="geometry">
            <mxPoint x="1040" y="4972" as="sourcePoint" />
            <mxPoint x="1040" y="4129" as="targetPoint" />
            <Array as="points">
              <mxPoint x="1130" y="4660" />
            </Array>
          </mxGeometry>
        </mxCell>
        <mxCell id="99R8zTNlRiclbiTMnsVC-10" value="&lt;font face=&quot;MS Mincho,ＭＳ 明朝&quot; style=&quot;font-size: 80px;&quot;&gt;read req&lt;/font&gt;" style="edgeLabel;html=1;align=center;verticalAlign=middle;resizable=0;points=[];labelBackgroundColor=default;" vertex="1" connectable="0" parent="1">
          <mxGeometry x="1570" y="4250" as="geometry">
            <mxPoint x="-5" y="-7" as="offset" />
          </mxGeometry>
        </mxCell>
        <mxCell id="99R8zTNlRiclbiTMnsVC-11" value="&lt;font face=&quot;MS Mincho,ＭＳ 明朝&quot; style=&quot;font-size: 80px;&quot;&gt;write&lt;/font&gt;" style="edgeLabel;html=1;align=center;verticalAlign=middle;resizable=0;points=[];labelBackgroundColor=default;" vertex="1" connectable="0" parent="1">
          <mxGeometry x="1339" y="4410" as="geometry">
            <mxPoint x="-10" y="-6" as="offset" />
          </mxGeometry>
        </mxCell>
        <mxCell id="99R8zTNlRiclbiTMnsVC-12" value="&lt;font face=&quot;MS Mincho,ＭＳ 明朝&quot; style=&quot;font-size: 80px;&quot;&gt;read resp&lt;/font&gt;" style="edgeLabel;html=1;align=center;verticalAlign=middle;resizable=0;points=[];labelBackgroundColor=default;" vertex="1" connectable="0" parent="1">
          <mxGeometry x="1120" y="4610" as="geometry">
            <mxPoint x="-4" y="-21" as="offset" />
          </mxGeometry>
        </mxCell>
        <mxCell id="99R8zTNlRiclbiTMnsVC-13" value="" style="endArrow=none;html=1;rounded=0;strokeWidth=6;endFill=1;startArrow=classic;startFill=1;endSize=40;targetPerimeterSpacing=0;entryX=1;entryY=0.5;entryDx=0;entryDy=0;startSize=40;exitX=0.5;exitY=1;exitDx=0;exitDy=0;" edge="1" parent="1" source="Eg_9pR13XYyEN4W18mx6-6" target="99R8zTNlRiclbiTMnsVC-5">
          <mxGeometry width="50" height="50" relative="1" as="geometry">
            <mxPoint x="3623" y="4210" as="sourcePoint" />
            <mxPoint x="3620" y="5057" as="targetPoint" />
            <Array as="points">
              <mxPoint x="3740" y="4560" />
            </Array>
          </mxGeometry>
        </mxCell>
        <mxCell id="99R8zTNlRiclbiTMnsVC-14" value="&lt;font face=&quot;MS Mincho,ＭＳ 明朝&quot; style=&quot;font-size: 80px;&quot;&gt;write_req&lt;/font&gt;" style="edgeLabel;html=1;align=center;verticalAlign=middle;resizable=0;points=[];labelBackgroundColor=default;" vertex="1" connectable="0" parent="1">
          <mxGeometry x="3120" y="4550" as="geometry">
            <mxPoint x="-10" y="-6" as="offset" />
          </mxGeometry>
        </mxCell>
        <mxCell id="99R8zTNlRiclbiTMnsVC-16" value="" style="shape=flexArrow;endArrow=classic;startArrow=classic;html=1;rounded=1;width=89.58333333333334;endSize=9.304166666666667;endWidth=86.14583333333334;startWidth=86.14583333333334;startSize=9.304166666666667;strokeWidth=6;flowAnimation=0;" edge="1" parent="1">
          <mxGeometry width="100" height="100" relative="1" as="geometry">
            <mxPoint x="2020" y="4921" as="sourcePoint" />
            <mxPoint x="2020" y="4776" as="targetPoint" />
          </mxGeometry>
        </mxCell>
        <mxCell id="99R8zTNlRiclbiTMnsVC-17" value="&lt;font face=&quot;MS Mincho,ＭＳ 明朝&quot; style=&quot;font-size: 80px;&quot;&gt;Tilelink_slave&lt;/font&gt;" style="edgeLabel;html=1;align=center;verticalAlign=middle;resizable=0;points=[];labelBackgroundColor=default;" vertex="1" connectable="0" parent="1">
          <mxGeometry x="1640" y="4850" as="geometry">
            <mxPoint x="-5" y="-7" as="offset" />
          </mxGeometry>
        </mxCell>
      </root>
    </mxGraphModel>
  </diagram>
</mxfile>
